<svg xmlns="http://www.w3.org/2000/svg" viewBox="0 0 256 256" width="256" height="256">
  <defs>
    <radialGradient id="eyeGlow" cx="50%" cy="50%" r="50%" fx="50%" fy="50%">
      <stop offset="0%" stop-color="#FFFFFF" stop-opacity="1" />
      <stop offset="100%" stop-color="#FFFFFF" stop-opacity="0.5" />
    </radialGradient>
  </defs>
  <g fill="#B00020">
    <path d="M128 0C92.7 0 64 24 64 64v128c0 40 28.7 64 64 64s64-24 64-64V64c0-40-28.7-64-64-64zm0 20c24 0 44 19.4 44 44v72c0 24.6-20 44-44 44s-44-19.4-44-44V64c0-24.6 20-44 44-44z"/>
    <path d="M90 80c-10.5 0-20.7 3.9-28 10.5C55.9 99.8 52 111 52 124c0 22 13 36 38 36 5.5 0 11-1 15-3 10.5-2.5 18-10 18-21 0-11-7.5-20.5-18-22-4-1-9-1-15-1zm76 0c-5.5 0-11 0-15 1-10.5 1.5-18 10-18 22 0 11 7.5 18.5 18 21 4 2 9.5 3 15 3 25 0 38-14 38-36 0-13-3.9-24.2-10.5-33.5C145.7 83.9 134.5 80 124 80z"/>
  </g>
  <g fill="url(#eyeGlow)">
    <ellipse cx="100" cy="100" rx="10" ry="5" />
    <ellipse cx="156" cy="100" rx="10" ry="5" />
  </g>
</svg>
